<svg xmlns="http://www.w3.org/2000/svg" width="128" height="33" viewBox="0 0 128 33" version="1.1">
	<path d="M 56.388 0.688 C 55.226 0.916, 52.976 2.459, 51.388 4.117 C 43.369 12.487, 52.698 26.078, 63.394 21.609 C 65.193 20.857, 67.569 19.092, 68.675 17.686 C 70.637 15.192, 70.732 15.175, 72.593 16.986 C 77.447 21.710, 86 18.581, 86 12.082 C 86 7.684, 85 5.903, 81.766 4.544 C 77.159 2.606, 74.115 3.769, 70.631 8.798 C 64.441 17.732, 63.047 19, 59.411 19 C 54.906 19, 52 16.059, 52 11.500 C 52 4.650, 59.654 1.447, 64.699 6.187 C 66.446 7.829, 67.312 8.088, 68.171 7.229 C 69.030 6.370, 68.964 5.662, 67.908 4.387 C 66.509 2.701, 60.777 -0.124, 59.282 0.136 C 58.852 0.211, 57.549 0.459, 56.388 0.688 M 2.250 3.609 C 1.403 3.987, 1 6.708, 1 12.052 C 1 18.650, 1.245 19.843, 2.500 19.362 C 3.325 19.045, 4 17.934, 4 16.893 C 4 15.316, 4.751 15, 8.500 15 C 15.784 15, 19.504 9.576, 15.010 5.509 C 13.036 3.723, 4.756 2.490, 2.250 3.609 M 21.205 3.869 C 20.283 4.442, 19.995 6.873, 20.205 12.304 C 20.435 18.247, 20.786 19.757, 21.795 19.131 C 22.717 18.558, 23.005 16.127, 22.795 10.696 C 22.565 4.753, 22.214 3.243, 21.205 3.869 M 90.750 4.022 C 88.283 5.541, 88.143 19, 90.594 19 C 91.470 19, 92.423 18.100, 92.710 17 C 93.409 14.327, 98.525 14.244, 99.937 16.882 C 100.917 18.713, 103.886 20.447, 104.681 19.653 C 104.897 19.436, 104.530 18.063, 103.865 16.602 C 102.939 14.570, 102.930 13.670, 103.827 12.773 C 105.494 11.106, 105.280 6.477, 103.467 4.972 C 101.441 3.291, 92.966 2.658, 90.750 4.022 M 109.750 4.080 C 107.073 5.639, 107.220 17.512, 109.934 18.965 C 113.756 21.010, 121 19.981, 121 17.393 C 121 16.409, 119.680 16, 116.500 16 C 113.246 16, 112 15.600, 112 14.557 C 112 13.580, 113.346 13.016, 116.172 12.807 C 122.139 12.368, 122.485 10, 116.583 10 C 113.257 10, 112 9.604, 112 8.557 C 112 7.576, 113.355 7.017, 116.241 6.807 C 119.335 6.583, 120.573 6.027, 120.815 4.750 C 121.094 3.276, 120.386 3.005, 116.323 3.030 C 113.670 3.047, 110.713 3.519, 109.750 4.080 M 26 11.500 C 26 17.500, 26.300 19, 27.500 19 C 28.633 19, 29 17.778, 29 14 C 29 8.557, 29.726 7.934, 32.500 11 C 34.832 13.577, 36.808 13.529, 39.686 10.826 L 42 8.651 42 14.294 C 42 18.899, 42.276 19.831, 43.500 19.362 C 44.646 18.922, 45 17.042, 45 11.393 C 45 4.902, 44.777 4, 43.174 4 C 42.170 4, 40.292 5.125, 39 6.500 C 37.708 7.875, 36.133 9, 35.500 9 C 34.867 9, 33.292 7.875, 32 6.500 C 30.708 5.125, 28.830 4, 27.826 4 C 26.220 4, 26 4.905, 26 11.500 M 125 5.500 C 125 6.325, 125.450 7, 126 7 C 126.550 7, 127 6.325, 127 5.500 C 127 4.675, 126.550 4, 126 4 C 125.450 4, 125 4.675, 125 5.500 M 4 9 C 4 10.704, 4.667 11, 8.500 11 C 12.333 11, 13 10.704, 13 9 C 13 7.296, 12.333 7, 8.500 7 C 4.667 7, 4 7.296, 4 9 M 74.523 8.974 C 72.850 10.823, 72.842 11.109, 74.391 13.474 C 75.301 14.863, 76.904 16, 77.952 16 C 80.328 16, 83 13.421, 83 11.129 C 83 6.954, 77.595 5.580, 74.523 8.974 M 93 9 C 93 10.870, 93.493 11.079, 97.250 10.807 C 100.224 10.592, 101.500 10.050, 101.500 9 C 101.500 7.950, 100.224 7.408, 97.250 7.193 C 93.493 6.921, 93 7.130, 93 9 M 19.362 26.500 C 18.464 28.839, 19.731 31, 22 31 C 24.544 31, 25.651 28.489, 23.989 26.487 C 22.402 24.574, 20.098 24.580, 19.362 26.500 M 55 28 C 55 30.349, 55.441 31, 57.031 31 C 59.549 31, 60.643 28.479, 58.989 26.487 C 56.917 23.991, 55 24.718, 55 28 M 79.232 28 C 79.232 29.925, 79.438 30.712, 79.689 29.750 C 79.941 28.788, 79.941 27.212, 79.689 26.250 C 79.438 25.288, 79.232 26.075, 79.232 28 M 83.509 27 C 84.383 30.052, 86.013 32.008, 85.968 29.950 C 85.951 29.152, 85.229 27.600, 84.365 26.500 C 82.838 24.557, 82.814 24.571, 83.509 27 M 99.232 28 C 99.232 29.925, 99.438 30.712, 99.689 29.750 C 99.941 28.788, 99.941 27.212, 99.689 26.250 C 99.438 25.288, 99.232 26.075, 99.232 28 M 20 27.927 C 20 29.358, 20.642 30, 22.073 30 C 24.636 30, 24.345 26.690, 21.739 26.188 C 20.539 25.957, 20 26.496, 20 27.927 M 39.684 26.750 C 39.446 27.163, 39.612 28.400, 40.055 29.500 C 40.757 31.246, 40.868 31.151, 40.930 28.750 C 40.999 26.037, 40.531 25.286, 39.684 26.750 M 43 28.198 C 43 29.372, 43.337 29.926, 43.750 29.428 C 44.163 28.931, 44.875 28.243, 45.334 27.901 C 45.792 27.558, 45.455 27.005, 44.584 26.671 C 43.443 26.233, 43 26.661, 43 28.198 M 56 27.917 C 56 29.145, 56.646 30, 57.573 30 C 58.505 30, 59.015 29.320, 58.823 28.333 C 58.337 25.824, 56 25.480, 56 27.917 M 71.195 28.500 C 71.215 30.150, 71.439 30.704, 71.693 29.731 C 71.947 28.758, 71.930 27.408, 71.656 26.731 C 71.382 26.054, 71.175 26.850, 71.195 28.500 M 86 27 C 86 27.550, 86.450 28, 87 28 C 87.550 28, 88 27.550, 88 27 C 88 26.450, 87.550 26, 87 26 C 86.450 26, 86 26.450, 86 27 M 103.166 27.062 C 100.387 28.176, 100.773 30.370, 103.828 30.820 C 105.577 31.077, 106 30.638, 106 28.570 C 106 27.156, 105.888 26.029, 105.750 26.063 C 105.612 26.098, 104.450 26.548, 103.166 27.062 M 26.015 28.191 C 26.007 29.121, 26.450 30.160, 27 30.500 C 28.266 31.282, 28.266 29.958, 27 28 C 26.165 26.707, 26.029 26.734, 26.015 28.191 M 28.664 28.832 C 28.849 29.564, 29 30.378, 29 30.641 C 29 30.903, 29.450 30.840, 30 30.500 C 30.550 30.160, 30.993 29.121, 30.985 28.191 C 30.973 26.855, 30.788 26.786, 30.106 27.863 C 29.631 28.613, 29.036 28.838, 28.785 28.363 C 28.534 27.888, 28.479 28.099, 28.664 28.832 M 32.116 29.250 C 32.203 30.943, 32.345 31.067, 32.689 29.750 C 32.941 28.788, 33.531 28, 34 28 C 34.469 28, 35.059 28.788, 35.311 29.750 C 35.655 31.067, 35.797 30.943, 35.884 29.250 C 35.968 27.628, 35.442 27, 34 27 C 32.558 27, 32.032 27.628, 32.116 29.250 M 47.500 28 C 46.608 29.444, 47.843 31.011, 49.809 30.930 C 51.188 30.872, 51.130 30.701, 49.500 30 C 47.611 29.188, 47.628 29.137, 49.809 29.070 C 52.218 28.997, 51.920 27, 49.500 27 C 48.740 27, 47.840 27.450, 47.500 28 M 61.158 29 C 61.158 30.375, 61.385 30.938, 61.662 30.250 C 61.940 29.563, 61.940 28.438, 61.662 27.750 C 61.385 27.063, 61.158 27.625, 61.158 29 M 63.300 29.750 C 63.780 33.338, 66.404 33.338, 66.816 29.750 C 67.073 27.522, 66.734 27, 65.032 27 C 63.318 27, 62.999 27.506, 63.300 29.750 M 68.079 28.583 C 68.127 29.748, 68.364 29.985, 68.683 29.188 C 68.972 28.466, 68.936 27.603, 68.604 27.271 C 68.272 26.939, 68.036 27.529, 68.079 28.583 M 73.500 28 C 72.577 29.494, 73.861 31, 76.059 31 C 77.333 31, 78 30.313, 78 29 C 78 26.879, 74.653 26.135, 73.500 28 M 88.600 28.600 C 88.244 29.527, 88.178 30.511, 88.453 30.786 C 88.728 31.061, 89.244 30.527, 89.600 29.600 C 89.956 28.673, 90.022 27.689, 89.747 27.414 C 89.472 27.139, 88.956 27.673, 88.600 28.600 M 91.500 28 C 90.601 29.455, 91.853 31.018, 93.809 30.884 C 95.334 30.779, 95.328 30.723, 93.750 30.311 C 92.787 30.059, 92 29.469, 92 29 C 92 28.531, 92.787 27.941, 93.750 27.689 C 95.328 27.277, 95.334 27.221, 93.809 27.116 C 92.879 27.052, 91.840 27.450, 91.500 28 M 64 29 C 64 29.550, 64.450 30, 65 30 C 65.550 30, 66 29.550, 66 29 C 66 28.450, 65.550 28, 65 28 C 64.450 28, 64 28.450, 64 29 M 74 29 C 74 29.550, 74.675 30, 75.500 30 C 76.325 30, 77 29.550, 77 29 C 77 28.450, 76.325 28, 75.500 28 C 74.675 28, 74 28.450, 74 29 M 102 29 C 102 29.550, 102.675 30, 103.500 30 C 104.325 30, 105 29.550, 105 29 C 105 28.450, 104.325 28, 103.500 28 C 102.675 28, 102 28.450, 102 29" stroke="none" fill="black" fill-rule="evenodd"/>
</svg>