<svg xmlns="http://www.w3.org/2000/svg" width="128" height="128" viewBox="0 0 128 128" version="1.1">
	<path d="M 11 64.500 L 11 91 37.757 91 L 64.514 91 91 64.500 L 117.486 38 64.243 38 L 11 38 11 64.500 M 19.212 48.129 C 13.104 49.890, 10.347 58.066, 14.256 62.823 C 14.940 63.656, 18.342 65.629, 21.816 67.208 C 26.459 69.319, 28.042 70.532, 27.794 71.790 C 27.542 73.066, 26.447 73.493, 23.478 73.473 C 21.290 73.458, 18.563 73.114, 17.417 72.709 C 15.777 72.128, 15.086 72.516, 14.167 74.533 C 12.373 78.469, 12.615 78.778, 18.435 79.987 C 23.935 81.128, 30.462 80.563, 32.750 78.747 C 33.597 78.075, 34 78.117, 34 78.878 C 34 79.539, 35.822 80, 38.433 80 C 41.987 80, 42.991 79.604, 43.500 78 C 44.040 76.299, 45.013 76, 50 76 C 54.987 76, 55.960 76.299, 56.500 78 C 57.064 79.779, 58.013 80, 65.067 80 L 73 80 73 75 L 73 70 77.277 70 C 84.550 70, 88.931 65.870, 88.946 59 C 88.964 50.735, 84.899 48, 72.597 48 L 64.063 48 63.782 59.750 L 63.500 71.500 60.115 62.500 C 54.157 46.663, 55.101 48, 49.878 48 L 45.244 48 43.024 54.250 C 41.803 57.688, 40.439 61.400, 39.993 62.500 C 39.547 63.600, 38.868 65.400, 38.485 66.500 C 37.799 68.470, 37.774 68.468, 36.799 66.380 C 35.870 64.388, 30.182 61.005, 25.340 59.565 C 24.152 59.212, 22.606 58.231, 21.905 57.385 C 20.862 56.129, 20.891 55.672, 22.064 54.889 C 23.440 53.970, 29.152 54.354, 32.345 55.579 C 33.356 55.967, 34.390 55.146, 35.432 53.131 C 36.295 51.463, 37 49.889, 37 49.633 C 37 48.975, 27.355 46.981, 24.701 47.090 C 23.490 47.140, 21.020 47.607, 19.212 48.129 M 73 59 C 73 63.053, 73.058 63.121, 76.250 62.813 C 79.238 62.525, 79.500 62.218, 79.500 59 C 79.500 55.782, 79.238 55.475, 76.250 55.187 C 73.058 54.879, 73 54.947, 73 59 M 48.119 63.443 C 46.649 69.281, 46.548 69, 50.108 69 C 52.910 69, 53.156 68.757, 52.600 66.544 C 51.738 63.109, 50.128 59, 49.643 59 C 49.420 59, 48.734 60.999, 48.119 63.443" stroke="none" fill="black" fill-rule="evenodd"/>
</svg>