<svg xmlns="http://www.w3.org/2000/svg" width="128" height="128" viewBox="0 0 128 128" version="1.1">
	<path d="M 0 64.007 L 0 128.015 64.250 127.757 L 128.500 127.500 128.757 63.750 L 129.015 0 64.507 0 L 0 0 0 64.007 M 0.471 64.500 C 0.471 99.700, 0.597 113.955, 0.750 96.178 C 0.903 78.400, 0.903 49.600, 0.749 32.178 C 0.596 14.755, 0.471 29.300, 0.471 64.500 M 28 55 C 28 69.850, 28.188 82, 28.418 82 C 28.648 82, 29.548 81.727, 30.418 81.393 C 31.801 80.862, 32 77.714, 32 56.393 L 32 32 64 32 L 96 32 96 37.500 C 96 40.525, 96.360 43, 96.800 43 C 98.927 43, 100 40.083, 100 34.300 L 100 28 64 28 L 28 28 28 55 M 93.778 49.031 C 91.180 50.614, 86.455 53.339, 83.278 55.087 C 80.100 56.835, 77.050 58.607, 76.500 59.026 C 75.542 59.755, 59.858 68.867, 51.500 73.550 C 49.300 74.783, 43.225 78.262, 38 81.282 L 28.500 86.772 28.204 93.386 L 27.909 100 63.954 100 L 100 100 100 73 C 100 58.150, 99.662 46.035, 99.250 46.077 C 98.838 46.119, 96.375 47.449, 93.778 49.031" stroke="none" fill="black" fill-rule="evenodd"/>
</svg>