<svg xmlns="http://www.w3.org/2000/svg" width="128" height="128" viewBox="0 0 128 128" version="1.1">
	<path d="M 0 64.007 L 0 128.015 64.250 127.757 L 128.500 127.500 128.757 63.750 L 129.015 0 64.507 0 L 0 0 0 64.007 M 0.471 64.500 C 0.471 99.700, 0.597 113.955, 0.750 96.178 C 0.903 78.400, 0.903 49.600, 0.749 32.178 C 0.596 14.755, 0.471 29.300, 0.471 64.500 M 32.402 64.395 C 31.961 65.543, 36.161 82.878, 39.938 95.500 C 40.432 97.150, 41.127 99.931, 41.482 101.681 C 42.380 106.098, 44.084 107.164, 49.672 106.808 L 54.500 106.500 57.316 96.500 C 58.865 91, 61.056 83.350, 62.185 79.500 L 64.238 72.500 67.590 85 C 73.883 108.472, 72.886 106.455, 78.372 106.808 C 83.916 107.165, 85.622 106.091, 86.518 101.681 C 86.873 99.931, 87.568 97.150, 88.062 95.500 C 91.839 82.878, 96.039 65.543, 95.598 64.395 C 94.799 62.312, 88.286 62.586, 87.159 64.750 C 86.658 65.713, 84.729 72.908, 82.874 80.740 C 81.018 88.572, 79.275 94.983, 79 94.986 C 78.725 94.990, 77.218 90.157, 75.651 84.246 C 69.787 62.121, 70.561 63.500, 64 63.500 C 57.470 63.500, 58.351 61.970, 52.487 83.500 C 49.749 93.550, 48 97.343, 48 93.228 C 48 90.819, 42.481 68.793, 40.990 65.250 C 40.260 63.517, 39.227 63, 36.490 63 C 34.373 63, 32.721 63.564, 32.402 64.395" stroke="none" fill="black" fill-rule="evenodd"/>
</svg>